<?xml version="1.0" encoding="UTF-8" standalone="no"?>
<svg width="198.261mm" height="148.872mm"
 viewBox="0 0 562 422"
 xmlns="http://www.w3.org/2000/svg" xmlns:xlink="http://www.w3.org/1999/xlink"  version="1.2" baseProfile="tiny">
<title>Qt SVG Document</title>
<desc>Generated with Qt</desc>
<defs>
</defs>
<g fill="none" stroke="black" stroke-width="1" fill-rule="evenodd" stroke-linecap="square" stroke-linejoin="bevel" >

<g fill="none" stroke="#000000" stroke-opacity="1" stroke-width="1" stroke-linecap="square" stroke-linejoin="bevel" transform="matrix(1,0,0,1,0,0)"
font-family=".SF NS Text" font-size="13" font-weight="400" font-style="normal" 
>
</g>

<g fill="none" stroke="#000000" stroke-opacity="1" stroke-width="1" stroke-linecap="square" stroke-linejoin="bevel" transform="matrix(1.00357,0,0,1.00357,0,0)"
font-family=".SF NS Text" font-size="13" font-weight="400" font-style="normal" 
>
</g>

<g fill="#ffffff" fill-opacity="1" stroke="none" transform="matrix(1.00357,0,0,1.00357,0,0)"
font-family=".SF NS Text" font-size="13" font-weight="400" font-style="normal" 
>
<rect x="0" y="0" width="560" height="420"/>
</g>

<g fill="none" stroke="#000000" stroke-opacity="1" stroke-width="1" stroke-linecap="square" stroke-linejoin="bevel" transform="matrix(1.00357,0,0,1.00357,0,0)"
font-family=".SF NS Text" font-size="13" font-weight="400" font-style="normal" 
>
</g>

<g fill="none" stroke="#000000" stroke-opacity="1" stroke-width="1" stroke-linecap="square" stroke-linejoin="bevel" transform="matrix(1.00357,0,0,1.00357,0,0)"
font-family=".SF NS Text" font-size="13" font-weight="400" font-style="normal" 
>
</g>

<g fill="#ffffff" fill-opacity="1" stroke="none" transform="matrix(1.00357,0,0,1.00357,0,0)"
font-family=".SF NS Text" font-size="13" font-weight="400" font-style="normal" 
>
<rect x="28" y="11" width="517" height="387"/>
</g>

<g fill="none" stroke="#000000" stroke-opacity="1" stroke-width="1" stroke-linecap="square" stroke-linejoin="bevel" transform="matrix(1.00357,0,0,1.00357,0,0)"
font-family=".SF NS Text" font-size="13" font-weight="400" font-style="normal" 
>
</g>

<g fill="none" stroke="#000000" stroke-opacity="1" stroke-width="1" stroke-linecap="square" stroke-linejoin="bevel" transform="matrix(1.00357,0,0,1.00357,0,0)"
font-family=".SF NS Text" font-size="13" font-weight="400" font-style="normal" 
>
</g>

<g fill="none" stroke="#000000" stroke-opacity="1" stroke-width="1" stroke-linecap="round" stroke-linejoin="round" transform="matrix(1.00357,0,0,1.00357,0,0)"
font-family=".SF NS Text" font-size="13" font-weight="400" font-style="normal" 
>
<polyline fill="none" vector-effect="none" points="27.5,398.5 33.5,398.5 " />
<polyline fill="none" vector-effect="none" points="544.5,398.5 538.5,398.5 " />
</g>

<g fill="none" stroke="#000000" stroke-opacity="1" stroke-width="1" stroke-linecap="square" stroke-linejoin="bevel" transform="matrix(1.00357,0,0,1.00357,0,0)"
font-family=".SF NS Text" font-size="13" font-weight="400" font-style="normal" 
>
</g>

<g fill="none" stroke="#000000" stroke-opacity="1" stroke-width="1" stroke-linecap="square" stroke-linejoin="bevel" transform="matrix(1.00357,0,0,1.00357,17.39,403.208)"
font-family=".SF NS Text" font-size="13" font-weight="400" font-style="normal" 
>
</g>

<g fill="none" stroke="#000000" stroke-opacity="1" stroke-width="1" stroke-linecap="square" stroke-linejoin="bevel" transform="matrix(1.00357,0,0,1.00357,17.39,403.208)"
font-family=".SF NS Text" font-size="13" font-weight="400" font-style="normal" 
>
</g>

<g fill="none" stroke="#000000" stroke-opacity="1" stroke-width="1" stroke-linecap="square" stroke-linejoin="bevel" transform="matrix(1.00357,0,0,1.00357,17.39,403.208)"
font-family=".SF NS Text" font-size="13" font-weight="400" font-style="normal" 
>
</g>

<g fill="none" stroke="#000000" stroke-opacity="1" stroke-width="1" stroke-linecap="square" stroke-linejoin="bevel" transform="matrix(1.00357,0,0,1.00357,17.39,403.208)"
font-family=".SF NS Text" font-size="13" font-weight="400" font-style="normal" 
>
</g>

<g fill="none" stroke="#000000" stroke-opacity="1" stroke-width="1" stroke-linecap="square" stroke-linejoin="bevel" transform="matrix(1.00357,0,0,1.00357,17.39,403.208)"
font-family=".SF NS Text" font-size="13" font-weight="400" font-style="normal" 
>
</g>

<g fill="none" stroke="#262626" stroke-opacity="1" stroke-width="1" stroke-linecap="square" stroke-linejoin="bevel" transform="matrix(1.00357,0,0,1.00357,17.39,403.208)"
font-family="Sans" font-size="10" font-weight="400" font-style="normal" 
>
<text fill="#262626" fill-opacity="1" stroke="none" xml:space="preserve" x="0" y="0" font-family="Sans" font-size="10" font-weight="400" font-style="normal" 
 >0</text>
</g>

<g fill="none" stroke="#000000" stroke-opacity="1" stroke-width="1" stroke-linecap="square" stroke-linejoin="bevel" transform="matrix(1.00357,0,0,1.00357,17.39,403.208)"
font-family=".SF NS Text" font-size="13" font-weight="400" font-style="normal" 
>
</g>

<g fill="none" stroke="#000000" stroke-opacity="1" stroke-width="1" stroke-linecap="square" stroke-linejoin="bevel" transform="matrix(1.00357,0,0,1.00357,0,0)"
font-family=".SF NS Text" font-size="13" font-weight="400" font-style="normal" 
>
</g>

<g fill="none" stroke="#000000" stroke-opacity="1" stroke-width="1" stroke-linecap="round" stroke-linejoin="round" transform="matrix(1.00357,0,0,1.00357,0,0)"
font-family=".SF NS Text" font-size="13" font-weight="400" font-style="normal" 
>
<polyline fill="none" vector-effect="none" points="27.5,320.5 33.5,320.5 " />
<polyline fill="none" vector-effect="none" points="544.5,320.5 538.5,320.5 " />
</g>

<g fill="none" stroke="#000000" stroke-opacity="1" stroke-width="1" stroke-linecap="square" stroke-linejoin="bevel" transform="matrix(1.00357,0,0,1.00357,0,0)"
font-family=".SF NS Text" font-size="13" font-weight="400" font-style="normal" 
>
</g>

<g fill="none" stroke="#000000" stroke-opacity="1" stroke-width="1" stroke-linecap="square" stroke-linejoin="bevel" transform="matrix(1.00357,0,0,1.00357,8.40491,325.933)"
font-family=".SF NS Text" font-size="13" font-weight="400" font-style="normal" 
>
</g>

<g fill="none" stroke="#000000" stroke-opacity="1" stroke-width="1" stroke-linecap="square" stroke-linejoin="bevel" transform="matrix(1.00357,0,0,1.00357,8.40491,325.933)"
font-family=".SF NS Text" font-size="13" font-weight="400" font-style="normal" 
>
</g>

<g fill="none" stroke="#000000" stroke-opacity="1" stroke-width="1" stroke-linecap="square" stroke-linejoin="bevel" transform="matrix(1.00357,0,0,1.00357,8.40491,325.933)"
font-family=".SF NS Text" font-size="13" font-weight="400" font-style="normal" 
>
</g>

<g fill="none" stroke="#000000" stroke-opacity="1" stroke-width="1" stroke-linecap="square" stroke-linejoin="bevel" transform="matrix(1.00357,0,0,1.00357,8.40491,325.933)"
font-family=".SF NS Text" font-size="13" font-weight="400" font-style="normal" 
>
</g>

<g fill="none" stroke="#000000" stroke-opacity="1" stroke-width="1" stroke-linecap="square" stroke-linejoin="bevel" transform="matrix(1.00357,0,0,1.00357,8.40491,325.933)"
font-family=".SF NS Text" font-size="13" font-weight="400" font-style="normal" 
>
</g>

<g fill="none" stroke="#262626" stroke-opacity="1" stroke-width="1" stroke-linecap="square" stroke-linejoin="bevel" transform="matrix(1.00357,0,0,1.00357,8.40491,325.933)"
font-family="Sans" font-size="10" font-weight="400" font-style="normal" 
>
<text fill="#262626" fill-opacity="1" stroke="none" xml:space="preserve" x="0" y="0" font-family="Sans" font-size="10" font-weight="400" font-style="normal" 
 >0.2</text>
</g>

<g fill="none" stroke="#000000" stroke-opacity="1" stroke-width="1" stroke-linecap="square" stroke-linejoin="bevel" transform="matrix(1.00357,0,0,1.00357,8.40491,325.933)"
font-family=".SF NS Text" font-size="13" font-weight="400" font-style="normal" 
>
</g>

<g fill="none" stroke="#000000" stroke-opacity="1" stroke-width="1" stroke-linecap="square" stroke-linejoin="bevel" transform="matrix(1.00357,0,0,1.00357,0,0)"
font-family=".SF NS Text" font-size="13" font-weight="400" font-style="normal" 
>
</g>

<g fill="none" stroke="#000000" stroke-opacity="1" stroke-width="1" stroke-linecap="round" stroke-linejoin="round" transform="matrix(1.00357,0,0,1.00357,0,0)"
font-family=".SF NS Text" font-size="13" font-weight="400" font-style="normal" 
>
<polyline fill="none" vector-effect="none" points="27.5,243.5 33.5,243.5 " />
<polyline fill="none" vector-effect="none" points="544.5,243.5 538.5,243.5 " />
</g>

<g fill="none" stroke="#000000" stroke-opacity="1" stroke-width="1" stroke-linecap="square" stroke-linejoin="bevel" transform="matrix(1.00357,0,0,1.00357,0,0)"
font-family=".SF NS Text" font-size="13" font-weight="400" font-style="normal" 
>
</g>

<g fill="none" stroke="#000000" stroke-opacity="1" stroke-width="1" stroke-linecap="square" stroke-linejoin="bevel" transform="matrix(1.00357,0,0,1.00357,7.95017,247.655)"
font-family=".SF NS Text" font-size="13" font-weight="400" font-style="normal" 
>
</g>

<g fill="none" stroke="#000000" stroke-opacity="1" stroke-width="1" stroke-linecap="square" stroke-linejoin="bevel" transform="matrix(1.00357,0,0,1.00357,7.95017,247.655)"
font-family=".SF NS Text" font-size="13" font-weight="400" font-style="normal" 
>
</g>

<g fill="none" stroke="#000000" stroke-opacity="1" stroke-width="1" stroke-linecap="square" stroke-linejoin="bevel" transform="matrix(1.00357,0,0,1.00357,7.95017,247.655)"
font-family=".SF NS Text" font-size="13" font-weight="400" font-style="normal" 
>
</g>

<g fill="none" stroke="#000000" stroke-opacity="1" stroke-width="1" stroke-linecap="square" stroke-linejoin="bevel" transform="matrix(1.00357,0,0,1.00357,7.95017,247.655)"
font-family=".SF NS Text" font-size="13" font-weight="400" font-style="normal" 
>
</g>

<g fill="none" stroke="#000000" stroke-opacity="1" stroke-width="1" stroke-linecap="square" stroke-linejoin="bevel" transform="matrix(1.00357,0,0,1.00357,7.95017,247.655)"
font-family=".SF NS Text" font-size="13" font-weight="400" font-style="normal" 
>
</g>

<g fill="none" stroke="#262626" stroke-opacity="1" stroke-width="1" stroke-linecap="square" stroke-linejoin="bevel" transform="matrix(1.00357,0,0,1.00357,7.95017,247.655)"
font-family="Sans" font-size="10" font-weight="400" font-style="normal" 
>
<text fill="#262626" fill-opacity="1" stroke="none" xml:space="preserve" x="0" y="0" font-family="Sans" font-size="10" font-weight="400" font-style="normal" 
 >0.4</text>
</g>

<g fill="none" stroke="#000000" stroke-opacity="1" stroke-width="1" stroke-linecap="square" stroke-linejoin="bevel" transform="matrix(1.00357,0,0,1.00357,7.95017,247.655)"
font-family=".SF NS Text" font-size="13" font-weight="400" font-style="normal" 
>
</g>

<g fill="none" stroke="#000000" stroke-opacity="1" stroke-width="1" stroke-linecap="square" stroke-linejoin="bevel" transform="matrix(1.00357,0,0,1.00357,0,0)"
font-family=".SF NS Text" font-size="13" font-weight="400" font-style="normal" 
>
</g>

<g fill="none" stroke="#000000" stroke-opacity="1" stroke-width="1" stroke-linecap="round" stroke-linejoin="round" transform="matrix(1.00357,0,0,1.00357,0,0)"
font-family=".SF NS Text" font-size="13" font-weight="400" font-style="normal" 
>
<polyline fill="none" vector-effect="none" points="27.5,165.5 33.5,165.5 " />
<polyline fill="none" vector-effect="none" points="544.5,165.5 538.5,165.5 " />
</g>

<g fill="none" stroke="#000000" stroke-opacity="1" stroke-width="1" stroke-linecap="square" stroke-linejoin="bevel" transform="matrix(1.00357,0,0,1.00357,0,0)"
font-family=".SF NS Text" font-size="13" font-weight="400" font-style="normal" 
>
</g>

<g fill="none" stroke="#000000" stroke-opacity="1" stroke-width="1" stroke-linecap="square" stroke-linejoin="bevel" transform="matrix(1.00357,0,0,1.00357,7.98153,170.38)"
font-family=".SF NS Text" font-size="13" font-weight="400" font-style="normal" 
>
</g>

<g fill="none" stroke="#000000" stroke-opacity="1" stroke-width="1" stroke-linecap="square" stroke-linejoin="bevel" transform="matrix(1.00357,0,0,1.00357,7.98153,170.38)"
font-family=".SF NS Text" font-size="13" font-weight="400" font-style="normal" 
>
</g>

<g fill="none" stroke="#000000" stroke-opacity="1" stroke-width="1" stroke-linecap="square" stroke-linejoin="bevel" transform="matrix(1.00357,0,0,1.00357,7.98153,170.38)"
font-family=".SF NS Text" font-size="13" font-weight="400" font-style="normal" 
>
</g>

<g fill="none" stroke="#000000" stroke-opacity="1" stroke-width="1" stroke-linecap="square" stroke-linejoin="bevel" transform="matrix(1.00357,0,0,1.00357,7.98153,170.38)"
font-family=".SF NS Text" font-size="13" font-weight="400" font-style="normal" 
>
</g>

<g fill="none" stroke="#000000" stroke-opacity="1" stroke-width="1" stroke-linecap="square" stroke-linejoin="bevel" transform="matrix(1.00357,0,0,1.00357,7.98153,170.38)"
font-family=".SF NS Text" font-size="13" font-weight="400" font-style="normal" 
>
</g>

<g fill="none" stroke="#262626" stroke-opacity="1" stroke-width="1" stroke-linecap="square" stroke-linejoin="bevel" transform="matrix(1.00357,0,0,1.00357,7.98153,170.38)"
font-family="Sans" font-size="10" font-weight="400" font-style="normal" 
>
<text fill="#262626" fill-opacity="1" stroke="none" xml:space="preserve" x="0" y="0" font-family="Sans" font-size="10" font-weight="400" font-style="normal" 
 >0.6</text>
</g>

<g fill="none" stroke="#000000" stroke-opacity="1" stroke-width="1" stroke-linecap="square" stroke-linejoin="bevel" transform="matrix(1.00357,0,0,1.00357,7.98153,170.38)"
font-family=".SF NS Text" font-size="13" font-weight="400" font-style="normal" 
>
</g>

<g fill="none" stroke="#000000" stroke-opacity="1" stroke-width="1" stroke-linecap="square" stroke-linejoin="bevel" transform="matrix(1.00357,0,0,1.00357,0,0)"
font-family=".SF NS Text" font-size="13" font-weight="400" font-style="normal" 
>
</g>

<g fill="none" stroke="#000000" stroke-opacity="1" stroke-width="1" stroke-linecap="round" stroke-linejoin="round" transform="matrix(1.00357,0,0,1.00357,0,0)"
font-family=".SF NS Text" font-size="13" font-weight="400" font-style="normal" 
>
<polyline fill="none" vector-effect="none" points="27.5,88.5 33.5,88.5 " />
<polyline fill="none" vector-effect="none" points="544.5,88.5 538.5,88.5 " />
</g>

<g fill="none" stroke="#000000" stroke-opacity="1" stroke-width="1" stroke-linecap="square" stroke-linejoin="bevel" transform="matrix(1.00357,0,0,1.00357,0,0)"
font-family=".SF NS Text" font-size="13" font-weight="400" font-style="normal" 
>
</g>

<g fill="none" stroke="#000000" stroke-opacity="1" stroke-width="1" stroke-linecap="square" stroke-linejoin="bevel" transform="matrix(1.00357,0,0,1.00357,7.87176,93.1048)"
font-family=".SF NS Text" font-size="13" font-weight="400" font-style="normal" 
>
</g>

<g fill="none" stroke="#000000" stroke-opacity="1" stroke-width="1" stroke-linecap="square" stroke-linejoin="bevel" transform="matrix(1.00357,0,0,1.00357,7.87176,93.1048)"
font-family=".SF NS Text" font-size="13" font-weight="400" font-style="normal" 
>
</g>

<g fill="none" stroke="#000000" stroke-opacity="1" stroke-width="1" stroke-linecap="square" stroke-linejoin="bevel" transform="matrix(1.00357,0,0,1.00357,7.87176,93.1048)"
font-family=".SF NS Text" font-size="13" font-weight="400" font-style="normal" 
>
</g>

<g fill="none" stroke="#000000" stroke-opacity="1" stroke-width="1" stroke-linecap="square" stroke-linejoin="bevel" transform="matrix(1.00357,0,0,1.00357,7.87176,93.1048)"
font-family=".SF NS Text" font-size="13" font-weight="400" font-style="normal" 
>
</g>

<g fill="none" stroke="#000000" stroke-opacity="1" stroke-width="1" stroke-linecap="square" stroke-linejoin="bevel" transform="matrix(1.00357,0,0,1.00357,7.87176,93.1048)"
font-family=".SF NS Text" font-size="13" font-weight="400" font-style="normal" 
>
</g>

<g fill="none" stroke="#262626" stroke-opacity="1" stroke-width="1" stroke-linecap="square" stroke-linejoin="bevel" transform="matrix(1.00357,0,0,1.00357,7.87176,93.1048)"
font-family="Sans" font-size="10" font-weight="400" font-style="normal" 
>
<text fill="#262626" fill-opacity="1" stroke="none" xml:space="preserve" x="0" y="0" font-family="Sans" font-size="10" font-weight="400" font-style="normal" 
 >0.8</text>
</g>

<g fill="none" stroke="#000000" stroke-opacity="1" stroke-width="1" stroke-linecap="square" stroke-linejoin="bevel" transform="matrix(1.00357,0,0,1.00357,7.87176,93.1048)"
font-family=".SF NS Text" font-size="13" font-weight="400" font-style="normal" 
>
</g>

<g fill="none" stroke="#000000" stroke-opacity="1" stroke-width="1" stroke-linecap="square" stroke-linejoin="bevel" transform="matrix(1.00357,0,0,1.00357,0,0)"
font-family=".SF NS Text" font-size="13" font-weight="400" font-style="normal" 
>
</g>

<g fill="none" stroke="#000000" stroke-opacity="1" stroke-width="1" stroke-linecap="round" stroke-linejoin="round" transform="matrix(1.00357,0,0,1.00357,0,0)"
font-family=".SF NS Text" font-size="13" font-weight="400" font-style="normal" 
>
<polyline fill="none" vector-effect="none" points="27.5,11.5 33.5,11.5 " />
<polyline fill="none" vector-effect="none" points="544.5,11.5 538.5,11.5 " />
</g>

<g fill="none" stroke="#000000" stroke-opacity="1" stroke-width="1" stroke-linecap="square" stroke-linejoin="bevel" transform="matrix(1.00357,0,0,1.00357,0,0)"
font-family=".SF NS Text" font-size="13" font-weight="400" font-style="normal" 
>
</g>

<g fill="none" stroke="#000000" stroke-opacity="1" stroke-width="1" stroke-linecap="square" stroke-linejoin="bevel" transform="matrix(1.00357,0,0,1.00357,17.7193,14.8262)"
font-family=".SF NS Text" font-size="13" font-weight="400" font-style="normal" 
>
</g>

<g fill="none" stroke="#000000" stroke-opacity="1" stroke-width="1" stroke-linecap="square" stroke-linejoin="bevel" transform="matrix(1.00357,0,0,1.00357,17.7193,14.8262)"
font-family=".SF NS Text" font-size="13" font-weight="400" font-style="normal" 
>
</g>

<g fill="none" stroke="#000000" stroke-opacity="1" stroke-width="1" stroke-linecap="square" stroke-linejoin="bevel" transform="matrix(1.00357,0,0,1.00357,17.7193,14.8262)"
font-family=".SF NS Text" font-size="13" font-weight="400" font-style="normal" 
>
</g>

<g fill="none" stroke="#000000" stroke-opacity="1" stroke-width="1" stroke-linecap="square" stroke-linejoin="bevel" transform="matrix(1.00357,0,0,1.00357,17.7193,14.8262)"
font-family=".SF NS Text" font-size="13" font-weight="400" font-style="normal" 
>
</g>

<g fill="none" stroke="#000000" stroke-opacity="1" stroke-width="1" stroke-linecap="square" stroke-linejoin="bevel" transform="matrix(1.00357,0,0,1.00357,17.7193,14.8262)"
font-family=".SF NS Text" font-size="13" font-weight="400" font-style="normal" 
>
</g>

<g fill="none" stroke="#262626" stroke-opacity="1" stroke-width="1" stroke-linecap="square" stroke-linejoin="bevel" transform="matrix(1.00357,0,0,1.00357,17.7193,14.8262)"
font-family="Sans" font-size="10" font-weight="400" font-style="normal" 
>
<text fill="#262626" fill-opacity="1" stroke="none" xml:space="preserve" x="0" y="0" font-family="Sans" font-size="10" font-weight="400" font-style="normal" 
 >1</text>
</g>

<g fill="none" stroke="#000000" stroke-opacity="1" stroke-width="1" stroke-linecap="square" stroke-linejoin="bevel" transform="matrix(1.00357,0,0,1.00357,17.7193,14.8262)"
font-family=".SF NS Text" font-size="13" font-weight="400" font-style="normal" 
>
</g>

<g fill="none" stroke="#000000" stroke-opacity="1" stroke-width="1" stroke-linecap="square" stroke-linejoin="bevel" transform="matrix(1.00357,0,0,1.00357,0,0)"
font-family=".SF NS Text" font-size="13" font-weight="400" font-style="normal" 
>
</g>

<g fill="none" stroke="#000000" stroke-opacity="1" stroke-width="1" stroke-linecap="round" stroke-linejoin="round" transform="matrix(1.00357,0,0,1.00357,0,0)"
font-family=".SF NS Text" font-size="13" font-weight="400" font-style="normal" 
>
<polyline fill="none" vector-effect="none" points="27.5,398.5 27.5,391.5 " />
<polyline fill="none" vector-effect="none" points="27.5,11.5 27.5,17.5 " />
</g>

<g fill="none" stroke="#000000" stroke-opacity="1" stroke-width="1" stroke-linecap="square" stroke-linejoin="bevel" transform="matrix(1.00357,0,0,1.00357,0,0)"
font-family=".SF NS Text" font-size="13" font-weight="400" font-style="normal" 
>
</g>

<g fill="none" stroke="#000000" stroke-opacity="1" stroke-width="1" stroke-linecap="square" stroke-linejoin="bevel" transform="matrix(1.00357,0,0,1.00357,19.1855,414.248)"
font-family=".SF NS Text" font-size="13" font-weight="400" font-style="normal" 
>
</g>

<g fill="none" stroke="#000000" stroke-opacity="1" stroke-width="1" stroke-linecap="square" stroke-linejoin="bevel" transform="matrix(1.00357,0,0,1.00357,19.1855,414.248)"
font-family=".SF NS Text" font-size="13" font-weight="400" font-style="normal" 
>
</g>

<g fill="none" stroke="#000000" stroke-opacity="1" stroke-width="1" stroke-linecap="square" stroke-linejoin="bevel" transform="matrix(1.00357,0,0,1.00357,19.1855,414.248)"
font-family=".SF NS Text" font-size="13" font-weight="400" font-style="normal" 
>
</g>

<g fill="none" stroke="#000000" stroke-opacity="1" stroke-width="1" stroke-linecap="square" stroke-linejoin="bevel" transform="matrix(1.00357,0,0,1.00357,19.1855,414.248)"
font-family=".SF NS Text" font-size="13" font-weight="400" font-style="normal" 
>
</g>

<g fill="none" stroke="#000000" stroke-opacity="1" stroke-width="1" stroke-linecap="square" stroke-linejoin="bevel" transform="matrix(1.00357,0,0,1.00357,19.1855,414.248)"
font-family=".SF NS Text" font-size="13" font-weight="400" font-style="normal" 
>
</g>

<g fill="none" stroke="#262626" stroke-opacity="1" stroke-width="1" stroke-linecap="square" stroke-linejoin="bevel" transform="matrix(1.00357,0,0,1.00357,19.1855,414.248)"
font-family="Sans" font-size="10" font-weight="400" font-style="normal" 
>
<text fill="#262626" fill-opacity="1" stroke="none" xml:space="preserve" x="0" y="0" font-family="Sans" font-size="10" font-weight="400" font-style="normal" 
 >-10</text>
</g>

<g fill="none" stroke="#000000" stroke-opacity="1" stroke-width="1" stroke-linecap="square" stroke-linejoin="bevel" transform="matrix(1.00357,0,0,1.00357,19.1855,414.248)"
font-family=".SF NS Text" font-size="13" font-weight="400" font-style="normal" 
>
</g>

<g fill="none" stroke="#000000" stroke-opacity="1" stroke-width="1" stroke-linecap="square" stroke-linejoin="bevel" transform="matrix(1.00357,0,0,1.00357,0,0)"
font-family=".SF NS Text" font-size="13" font-weight="400" font-style="normal" 
>
</g>

<g fill="none" stroke="#000000" stroke-opacity="1" stroke-width="1" stroke-linecap="round" stroke-linejoin="round" transform="matrix(1.00357,0,0,1.00357,0,0)"
font-family=".SF NS Text" font-size="13" font-weight="400" font-style="normal" 
>
<polyline fill="none" vector-effect="none" points="156.5,398.5 156.5,391.5 " />
<polyline fill="none" vector-effect="none" points="156.5,11.5 156.5,17.5 " />
</g>

<g fill="none" stroke="#000000" stroke-opacity="1" stroke-width="1" stroke-linecap="square" stroke-linejoin="bevel" transform="matrix(1.00357,0,0,1.00357,0,0)"
font-family=".SF NS Text" font-size="13" font-weight="400" font-style="normal" 
>
</g>

<g fill="none" stroke="#000000" stroke-opacity="1" stroke-width="1" stroke-linecap="square" stroke-linejoin="bevel" transform="matrix(1.00357,0,0,1.00357,152.096,414.248)"
font-family=".SF NS Text" font-size="13" font-weight="400" font-style="normal" 
>
</g>

<g fill="none" stroke="#000000" stroke-opacity="1" stroke-width="1" stroke-linecap="square" stroke-linejoin="bevel" transform="matrix(1.00357,0,0,1.00357,152.096,414.248)"
font-family=".SF NS Text" font-size="13" font-weight="400" font-style="normal" 
>
</g>

<g fill="none" stroke="#000000" stroke-opacity="1" stroke-width="1" stroke-linecap="square" stroke-linejoin="bevel" transform="matrix(1.00357,0,0,1.00357,152.096,414.248)"
font-family=".SF NS Text" font-size="13" font-weight="400" font-style="normal" 
>
</g>

<g fill="none" stroke="#000000" stroke-opacity="1" stroke-width="1" stroke-linecap="square" stroke-linejoin="bevel" transform="matrix(1.00357,0,0,1.00357,152.096,414.248)"
font-family=".SF NS Text" font-size="13" font-weight="400" font-style="normal" 
>
</g>

<g fill="none" stroke="#000000" stroke-opacity="1" stroke-width="1" stroke-linecap="square" stroke-linejoin="bevel" transform="matrix(1.00357,0,0,1.00357,152.096,414.248)"
font-family=".SF NS Text" font-size="13" font-weight="400" font-style="normal" 
>
</g>

<g fill="none" stroke="#262626" stroke-opacity="1" stroke-width="1" stroke-linecap="square" stroke-linejoin="bevel" transform="matrix(1.00357,0,0,1.00357,152.096,414.248)"
font-family="Sans" font-size="10" font-weight="400" font-style="normal" 
>
<text fill="#262626" fill-opacity="1" stroke="none" xml:space="preserve" x="0" y="0" font-family="Sans" font-size="10" font-weight="400" font-style="normal" 
 >-5</text>
</g>

<g fill="none" stroke="#000000" stroke-opacity="1" stroke-width="1" stroke-linecap="square" stroke-linejoin="bevel" transform="matrix(1.00357,0,0,1.00357,152.096,414.248)"
font-family=".SF NS Text" font-size="13" font-weight="400" font-style="normal" 
>
</g>

<g fill="none" stroke="#000000" stroke-opacity="1" stroke-width="1" stroke-linecap="square" stroke-linejoin="bevel" transform="matrix(1.00357,0,0,1.00357,0,0)"
font-family=".SF NS Text" font-size="13" font-weight="400" font-style="normal" 
>
</g>

<g fill="none" stroke="#000000" stroke-opacity="1" stroke-width="1" stroke-linecap="round" stroke-linejoin="round" transform="matrix(1.00357,0,0,1.00357,0,0)"
font-family=".SF NS Text" font-size="13" font-weight="400" font-style="normal" 
>
<polyline fill="none" vector-effect="none" points="286.5,398.5 286.5,391.5 " />
<polyline fill="none" vector-effect="none" points="286.5,11.5 286.5,17.5 " />
</g>

<g fill="none" stroke="#000000" stroke-opacity="1" stroke-width="1" stroke-linecap="square" stroke-linejoin="bevel" transform="matrix(1.00357,0,0,1.00357,0,0)"
font-family=".SF NS Text" font-size="13" font-weight="400" font-style="normal" 
>
</g>

<g fill="none" stroke="#000000" stroke-opacity="1" stroke-width="1" stroke-linecap="square" stroke-linejoin="bevel" transform="matrix(1.00357,0,0,1.00357,284.175,414.248)"
font-family=".SF NS Text" font-size="13" font-weight="400" font-style="normal" 
>
</g>

<g fill="none" stroke="#000000" stroke-opacity="1" stroke-width="1" stroke-linecap="square" stroke-linejoin="bevel" transform="matrix(1.00357,0,0,1.00357,284.175,414.248)"
font-family=".SF NS Text" font-size="13" font-weight="400" font-style="normal" 
>
</g>

<g fill="none" stroke="#000000" stroke-opacity="1" stroke-width="1" stroke-linecap="square" stroke-linejoin="bevel" transform="matrix(1.00357,0,0,1.00357,284.175,414.248)"
font-family=".SF NS Text" font-size="13" font-weight="400" font-style="normal" 
>
</g>

<g fill="none" stroke="#000000" stroke-opacity="1" stroke-width="1" stroke-linecap="square" stroke-linejoin="bevel" transform="matrix(1.00357,0,0,1.00357,284.175,414.248)"
font-family=".SF NS Text" font-size="13" font-weight="400" font-style="normal" 
>
</g>

<g fill="none" stroke="#000000" stroke-opacity="1" stroke-width="1" stroke-linecap="square" stroke-linejoin="bevel" transform="matrix(1.00357,0,0,1.00357,284.175,414.248)"
font-family=".SF NS Text" font-size="13" font-weight="400" font-style="normal" 
>
</g>

<g fill="none" stroke="#262626" stroke-opacity="1" stroke-width="1" stroke-linecap="square" stroke-linejoin="bevel" transform="matrix(1.00357,0,0,1.00357,284.175,414.248)"
font-family="Sans" font-size="10" font-weight="400" font-style="normal" 
>
<text fill="#262626" fill-opacity="1" stroke="none" xml:space="preserve" x="0" y="0" font-family="Sans" font-size="10" font-weight="400" font-style="normal" 
 >0</text>
</g>

<g fill="none" stroke="#000000" stroke-opacity="1" stroke-width="1" stroke-linecap="square" stroke-linejoin="bevel" transform="matrix(1.00357,0,0,1.00357,284.175,414.248)"
font-family=".SF NS Text" font-size="13" font-weight="400" font-style="normal" 
>
</g>

<g fill="none" stroke="#000000" stroke-opacity="1" stroke-width="1" stroke-linecap="square" stroke-linejoin="bevel" transform="matrix(1.00357,0,0,1.00357,0,0)"
font-family=".SF NS Text" font-size="13" font-weight="400" font-style="normal" 
>
</g>

<g fill="none" stroke="#000000" stroke-opacity="1" stroke-width="1" stroke-linecap="round" stroke-linejoin="round" transform="matrix(1.00357,0,0,1.00357,0,0)"
font-family=".SF NS Text" font-size="13" font-weight="400" font-style="normal" 
>
<polyline fill="none" vector-effect="none" points="415.5,398.5 415.5,391.5 " />
<polyline fill="none" vector-effect="none" points="415.5,11.5 415.5,17.5 " />
</g>

<g fill="none" stroke="#000000" stroke-opacity="1" stroke-width="1" stroke-linecap="square" stroke-linejoin="bevel" transform="matrix(1.00357,0,0,1.00357,0,0)"
font-family=".SF NS Text" font-size="13" font-weight="400" font-style="normal" 
>
</g>

<g fill="none" stroke="#000000" stroke-opacity="1" stroke-width="1" stroke-linecap="square" stroke-linejoin="bevel" transform="matrix(1.00357,0,0,1.00357,414.922,414.248)"
font-family=".SF NS Text" font-size="13" font-weight="400" font-style="normal" 
>
</g>

<g fill="none" stroke="#000000" stroke-opacity="1" stroke-width="1" stroke-linecap="square" stroke-linejoin="bevel" transform="matrix(1.00357,0,0,1.00357,414.922,414.248)"
font-family=".SF NS Text" font-size="13" font-weight="400" font-style="normal" 
>
</g>

<g fill="none" stroke="#000000" stroke-opacity="1" stroke-width="1" stroke-linecap="square" stroke-linejoin="bevel" transform="matrix(1.00357,0,0,1.00357,414.922,414.248)"
font-family=".SF NS Text" font-size="13" font-weight="400" font-style="normal" 
>
</g>

<g fill="none" stroke="#000000" stroke-opacity="1" stroke-width="1" stroke-linecap="square" stroke-linejoin="bevel" transform="matrix(1.00357,0,0,1.00357,414.922,414.248)"
font-family=".SF NS Text" font-size="13" font-weight="400" font-style="normal" 
>
</g>

<g fill="none" stroke="#000000" stroke-opacity="1" stroke-width="1" stroke-linecap="square" stroke-linejoin="bevel" transform="matrix(1.00357,0,0,1.00357,414.922,414.248)"
font-family=".SF NS Text" font-size="13" font-weight="400" font-style="normal" 
>
</g>

<g fill="none" stroke="#262626" stroke-opacity="1" stroke-width="1" stroke-linecap="square" stroke-linejoin="bevel" transform="matrix(1.00357,0,0,1.00357,414.922,414.248)"
font-family="Sans" font-size="10" font-weight="400" font-style="normal" 
>
<text fill="#262626" fill-opacity="1" stroke="none" xml:space="preserve" x="0" y="0" font-family="Sans" font-size="10" font-weight="400" font-style="normal" 
 >5</text>
</g>

<g fill="none" stroke="#000000" stroke-opacity="1" stroke-width="1" stroke-linecap="square" stroke-linejoin="bevel" transform="matrix(1.00357,0,0,1.00357,414.922,414.248)"
font-family=".SF NS Text" font-size="13" font-weight="400" font-style="normal" 
>
</g>

<g fill="none" stroke="#000000" stroke-opacity="1" stroke-width="1" stroke-linecap="square" stroke-linejoin="bevel" transform="matrix(1.00357,0,0,1.00357,0,0)"
font-family=".SF NS Text" font-size="13" font-weight="400" font-style="normal" 
>
</g>

<g fill="none" stroke="#000000" stroke-opacity="1" stroke-width="1" stroke-linecap="round" stroke-linejoin="round" transform="matrix(1.00357,0,0,1.00357,0,0)"
font-family=".SF NS Text" font-size="13" font-weight="400" font-style="normal" 
>
<polyline fill="none" vector-effect="none" points="544.5,398.5 544.5,391.5 " />
<polyline fill="none" vector-effect="none" points="544.5,11.5 544.5,17.5 " />
</g>

<g fill="none" stroke="#000000" stroke-opacity="1" stroke-width="1" stroke-linecap="square" stroke-linejoin="bevel" transform="matrix(1.00357,0,0,1.00357,0,0)"
font-family=".SF NS Text" font-size="13" font-weight="400" font-style="normal" 
>
</g>

<g fill="none" stroke="#000000" stroke-opacity="1" stroke-width="1" stroke-linecap="square" stroke-linejoin="bevel" transform="matrix(1.00357,0,0,1.00357,540.933,414.248)"
font-family=".SF NS Text" font-size="13" font-weight="400" font-style="normal" 
>
</g>

<g fill="none" stroke="#000000" stroke-opacity="1" stroke-width="1" stroke-linecap="square" stroke-linejoin="bevel" transform="matrix(1.00357,0,0,1.00357,540.933,414.248)"
font-family=".SF NS Text" font-size="13" font-weight="400" font-style="normal" 
>
</g>

<g fill="none" stroke="#000000" stroke-opacity="1" stroke-width="1" stroke-linecap="square" stroke-linejoin="bevel" transform="matrix(1.00357,0,0,1.00357,540.933,414.248)"
font-family=".SF NS Text" font-size="13" font-weight="400" font-style="normal" 
>
</g>

<g fill="none" stroke="#000000" stroke-opacity="1" stroke-width="1" stroke-linecap="square" stroke-linejoin="bevel" transform="matrix(1.00357,0,0,1.00357,540.933,414.248)"
font-family=".SF NS Text" font-size="13" font-weight="400" font-style="normal" 
>
</g>

<g fill="none" stroke="#000000" stroke-opacity="1" stroke-width="1" stroke-linecap="square" stroke-linejoin="bevel" transform="matrix(1.00357,0,0,1.00357,540.933,414.248)"
font-family=".SF NS Text" font-size="13" font-weight="400" font-style="normal" 
>
</g>

<g fill="none" stroke="#262626" stroke-opacity="1" stroke-width="1" stroke-linecap="square" stroke-linejoin="bevel" transform="matrix(1.00357,0,0,1.00357,540.933,414.248)"
font-family="Sans" font-size="10" font-weight="400" font-style="normal" 
>
<text fill="#262626" fill-opacity="1" stroke="none" xml:space="preserve" x="0" y="0" font-family="Sans" font-size="10" font-weight="400" font-style="normal" 
 >10</text>
</g>

<g fill="none" stroke="#000000" stroke-opacity="1" stroke-width="1" stroke-linecap="square" stroke-linejoin="bevel" transform="matrix(1.00357,0,0,1.00357,540.933,414.248)"
font-family=".SF NS Text" font-size="13" font-weight="400" font-style="normal" 
>
</g>

<g fill="none" stroke="#000000" stroke-opacity="1" stroke-width="1" stroke-linecap="square" stroke-linejoin="bevel" transform="matrix(1.00357,0,0,1.00357,0,0)"
font-family=".SF NS Text" font-size="13" font-weight="400" font-style="normal" 
>
</g>

<g fill="none" stroke="#000000" stroke-opacity="1" stroke-width="1" stroke-linecap="square" stroke-linejoin="bevel" transform="matrix(1.00357,0,0,1.00357,0,0)"
font-family=".SF NS Text" font-size="13" font-weight="400" font-style="normal" 
>
</g>

<g fill="none" stroke="#000000" stroke-opacity="1" stroke-width="1" stroke-linecap="square" stroke-linejoin="bevel" transform="matrix(1.00357,0,0,1.00357,0,0)"
font-family=".SF NS Text" font-size="13" font-weight="400" font-style="normal" 
>
</g>

<g fill="none" stroke="#0072bd" stroke-opacity="1" stroke-width="0.5" stroke-linecap="round" stroke-linejoin="round" transform="matrix(1.00357,0,0,1.00357,0,0)"
font-family=".SF NS Text" font-size="13" font-weight="400" font-style="normal" 
>
<polyline fill="none" vector-effect="none" points="27.5,398 27.5,398 30.1,398 32.7,398 35.3,398 37.8,398 40.4,398 43,398 45.6,398 48.2,398 50.8,398 53.4,398 56,397.9 58.5,397.9 61.1,397.9 63.7,397.9 66.3,397.9 68.9,397.9 71.5,397.9 74.1,397.9 76.7,397.9 79.2,397.9 81.8,397.9 84.4,397.8 87,397.8 89.6,397.8 92.2,397.8 94.8,397.8 97.3,397.7 99.9,397.7 102.5,397.7 105.1,397.6 107.7,397.6 110.3,397.6 112.9,397.5 115.5,397.5 118,397.4 120.6,397.4 123.2,397.3 125.8,397.2 128.4,397.1 131,397 133.6,396.9 136.2,396.8 138.7,396.7 141.3,396.6 143.9,396.4 146.5,396.3 149.1,396.1 151.7,395.9 154.3,395.7 156.9,395.4 159.4,395.1 162,394.8 164.6,394.5 167.2,394.1 169.8,393.7 172.4,393.3 175,392.8 177.5,392.3 180.1,391.7 182.7,391 185.3,390.3 187.9,389.5 190.5,388.7 193.1,387.7 195.7,386.7 198.2,385.5 200.8,384.2 203.4,382.8 206,381.3 208.6,379.7 211.2,377.8 213.8,375.8 216.4,373.6 218.9,371.3 221.5,368.7 224.1,365.8 226.7,362.7 229.3,359.4 231.9,355.8 234.5,351.9 237,347.7 239.6,343.1 242.2,338.2 244.8,333 247.4,327.4 250,321.5 252.6,315.1 255.2,308.4 257.7,301.4 260.3,293.9 262.9,286.2 265.5,278.1 268.1,269.6 270.7,260.9 273.3,251.9 275.9,242.7 278.4,233.4 281,223.8 283.6,214.2 286.2,204.5 288.8,194.9 291.4,185.3 294,175.7 296.5,166.4 299.1,157.2 301.7,148.2 304.3,139.5 306.9,131 309.5,122.9 312.1,115.2 314.7,107.7 317.2,100.7 319.8,94 322.4,87.6 325,81.7 327.6,76.1 330.2,70.9 332.8,66 335.4,61.4 337.9,57.2 340.5,53.3 343.1,49.7 345.7,46.4 348.3,43.3 350.9,40.4 353.5,37.8 356,35.5 358.6,33.3 361.2,31.3 363.8,29.4 366.4,27.8 369,26.3 371.6,24.9 374.2,23.6 376.7,22.4 379.3,21.4 381.9,20.4 384.5,19.6 387.1,18.8 389.7,18.1 392.3,17.4 394.9,16.8 397.4,16.3 400,15.8 402.6,15.4 405.2,15 407.8,14.6 410.4,14.3 413,14 415.6,13.7 418.1,13.4 420.7,13.2 423.3,13 425.9,12.8 428.5,12.7 431.1,12.5 433.7,12.4 436.2,12.3 438.8,12.2 441.4,12.1 444,12 446.6,11.9 449.2,11.8 451.8,11.7 454.4,11.7 456.9,11.6 459.5,11.6 462.1,11.5 464.7,11.5 467.3,11.5 469.9,11.4 472.5,11.4 475.1,11.4 477.6,11.3 480.2,11.3 482.8,11.3 485.4,11.3 488,11.3 490.6,11.2 493.2,11.2 495.7,11.2 498.3,11.2 500.9,11.2 503.5,11.2 506.1,11.2 508.7,11.2 511.3,11.2 513.9,11.2 516.4,11.2 519,11.1 521.6,11.1 524.2,11.1 526.8,11.1 529.4,11.1 532,11.1 534.6,11.1 537.1,11.1 539.7,11.1 542.3,11.1 544.9,11.1 " />
</g>

<g fill="none" stroke="#000000" stroke-opacity="1" stroke-width="1" stroke-linecap="square" stroke-linejoin="bevel" transform="matrix(1.00357,0,0,1.00357,0,0)"
font-family=".SF NS Text" font-size="13" font-weight="400" font-style="normal" 
>
</g>

<g fill="none" stroke="#000000" stroke-opacity="1" stroke-width="1" stroke-linecap="square" stroke-linejoin="bevel" transform="matrix(1.00357,0,0,1.00357,0,0)"
font-family=".SF NS Text" font-size="13" font-weight="400" font-style="normal" 
>
</g>

<g fill="none" stroke="#262626" stroke-opacity="1" stroke-width="0.5" stroke-linecap="round" stroke-linejoin="round" transform="matrix(1.00357,0,0,1.00357,0,0)"
font-family=".SF NS Text" font-size="13" font-weight="400" font-style="normal" 
>
<polyline fill="none" vector-effect="none" points="27.5,398.5 544.5,398.5 " />
<polyline fill="none" vector-effect="none" points="27.5,11.5 544.5,11.5 " />
<polyline fill="none" vector-effect="none" points="27.5,398.5 27.5,11.5 " />
<polyline fill="none" vector-effect="none" points="544.5,398.5 544.5,11.5 " />
</g>

<g fill="none" stroke="#000000" stroke-opacity="1" stroke-width="1" stroke-linecap="square" stroke-linejoin="bevel" transform="matrix(1.00357,0,0,1.00357,0,0)"
font-family=".SF NS Text" font-size="13" font-weight="400" font-style="normal" 
>
</g>

<g fill="none" stroke="#000000" stroke-opacity="1" stroke-width="1" stroke-linecap="square" stroke-linejoin="bevel" transform="matrix(1,0,0,1,0,0)"
font-family=".SF NS Text" font-size="13" font-weight="400" font-style="normal" 
>
</g>
</g>
</svg>
